<?xml version="1.0" encoding="UTF-8" standalone="no"?>
<!-- Created with Inkscape (http://www.inkscape.org/) -->

<svg
   xmlns:dc="http://purl.org/dc/elements/1.1/"
   xmlns:cc="http://creativecommons.org/ns#"
   xmlns:rdf="http://www.w3.org/1999/02/22-rdf-syntax-ns#"
   xmlns:svg="http://www.w3.org/2000/svg"
   xmlns="http://www.w3.org/2000/svg"
   xmlns:sodipodi="http://sodipodi.sourceforge.net/DTD/sodipodi-0.dtd"
   xmlns:inkscape="http://www.inkscape.org/namespaces/inkscape"
   version="1.1"
   id="svg1575"
   width="600"
   height="600"
   viewBox="0 0 600 600"
   sodipodi:docname="athena.svg"
   inkscape:version="0.92.2 5c3e80d, 2017-08-06">
  <metadata
     id="metadata1581">
    <rdf:RDF>
      <cc:Work
         rdf:about="">
        <dc:format>image/svg+xml</dc:format>
        <dc:type
           rdf:resource="http://purl.org/dc/dcmitype/StillImage" />
        <dc:title />
      </cc:Work>
    </rdf:RDF>
  </metadata>
  <defs
     id="defs1579" />
  <sodipodi:namedview
     pagecolor="#ffffff"
     bordercolor="#666666"
     borderopacity="1"
     objecttolerance="10"
     gridtolerance="10"
     guidetolerance="10"
     inkscape:pageopacity="0"
     inkscape:pageshadow="2"
     inkscape:window-width="1440"
     inkscape:window-height="855"
     id="namedview1577"
     showgrid="false"
     inkscape:zoom="1"
     inkscape:cx="203.38174"
     inkscape:cy="307.80786"
     inkscape:window-x="0"
     inkscape:window-y="1"
     inkscape:window-maximized="1"
     inkscape:current-layer="g1603" />
  <g
     id="g1603"
     style="display:inline">
    <path
       style="fill:#cfecec;fill-opacity:1"
       d="m 322,593.06386 c -15.40979,-0.50741 -26.95231,-11.04058 -38.5,-19.90195 -11.63682,-2.47298 -25.41283,-0.37164 -35.53878,-6.70864 3.3729,-8.81969 -7.3259,-9.89582 -5.96122,0.61258 -3.83685,7.32093 -5.23815,21.80597 -16.54805,19.81851 -9.21105,0.29844 -17.67649,-5.37025 -21.55191,-13.6338 -25.02497,-1.16456 -50.4679,-3.64314 -73.40004,-14.4729 -8.69155,-2.7139 -14.82199,3.58768 -21.9996,6.43848 -9.627758,1.59622 -22.635652,-0.27771 -23.62579,-12.29645 -0.945819,-13.29893 -11.194846,-22.09751 -18.808963,-31.80992 -7.921348,-12.12493 -2.684506,-27.60501 -10.848271,-39.7827 -7.12662,-9.90537 5.726962,-16.7233 14.403618,-16.97498 3.047449,-4.02966 -8.037114,-14.05253 -8.273771,-21.49908 -4.483278,-10.03559 -0.855755,-20.76575 4.576467,-29.63593 27.527561,1.56875 55.46787,1.54222 82.02668,-6.86106 29.51876,-9.10304 60.06381,-21.28281 80.88378,-45.09629 8.71389,-7.70397 16.10142,-19.48599 11.6194,-31.26915 1.4061,-11.38719 -6.34575,-15.27335 -16.46178,-15.4496 -10.46972,-0.4172 -22.83773,-8.93847 -32.01855,-1.40888 -6.91965,9.39434 -5.59633,21.94331 -1.36876,31.59671 -9.7856,-3.79044 -15.74659,-15.4359 -13.58749,-26.23072 1.32582,-8.24769 7.23708,-17.51166 15.48349,-19.68995 -14.0892,-2.8019 -32.51126,-7.15077 -42.38016,6.53131 -6.66677,6.68942 -1.53043,-14.12598 4.09757,-16.05197 9.83375,-11.24068 26.88889,-8.67435 39.55316,-5.72476 -9.30267,-13.3805 -30.52095,-12.71294 -44.3335,-6.45864 -6.1003,2.12266 -7.12108,18.94707 -13.36201,13.71375 -7.07074,-11.57091 -4.67853,-27.1229 6.82127,-34.78806 9.33919,-7.93128 23.23282,-6.72264 34.10321,-3.09628 15.4723,5.08992 29.23318,17.35732 46.5,14.93118 -13.6989,-6.24321 -28.36728,-11.37482 -37.57274,-24.00895 C 172.7334,230.3586 156.35373,214.62777 135.93169,217.668 118.32,221.44012 104.87957,234.07457 93,246.94598 c -1.508746,-15.26212 1.879373,-32.88042 16.60457,-40.67546 19.47825,-11.38484 44.80655,-9.79478 64.56412,0.26718 15.1087,6.55276 30.92204,11.5841 47.10989,14.60522 0.68945,-9.62264 -5.43489,-9.6761 -13.04926,-13.1568 -12.95303,-3.72418 -21.43451,-17.43641 -19.66138,-30.48612 4.64393,12.71499 15.79272,23.29568 29.06882,25.19657 -1.16691,-7.04142 0.16983,-16.83072 -8.14802,-19.67069 -4.92406,-6.79402 -0.6865,-15.55719 1.13136,-22.53555 C 207.87433,143.64896 204.1506,126.8939 202,110 c -18.35034,0.91627 -36.41932,-8.70499 -45.90377,-24.294392 -1.52826,-4.451171 -11.42806,-19.559968 -5.75837,-17.299253 9.40105,15.248266 21.64454,33.114355 41.36243,33.824415 11.95083,-5.213312 3.84173,-10.926891 -5.60052,-10.841099 -18.05984,-6.263436 -32.83771,-22.748456 -33.07685,-42.465963 -0.4176,-17.481697 8.1246,-37.282135 26.13857,-42.7560784 20.2528,-5.30670254 44.02771,4.5911434 51.82867,24.7905894 9.39826,21.589978 2.90651,52.181752 -20.93952,61.111343 0.0744,6.997611 15.70611,4.975385 19.44639,-2.26022 11.2855,-11.366369 12.10941,-27.964183 16.98776,-42.309342 2.57901,19.756811 -3.78556,41.035211 -20.15378,53.26125 -9.19337,4.31896 -17.70575,8.18057 -11.92324,19.66533 2.70203,13.73691 4.24517,28.33265 7.57422,41.5595 8.37092,4.93962 3.90323,14.88771 9.24216,21.25228 5.72437,8.17853 15.24372,12.09427 23.01476,17.97384 10.84096,-4.14199 18.7918,-15.51852 15.64249,-27.28415 3.23401,-8.62785 13.96909,-10.02375 15.34686,-19.88635 4.78139,-16.43415 12.8244,-33.36533 9.64339,-50.76115 -7.77958,-4.973976 -9.21924,-14.622367 -3.53745,-21.895686 9.09316,-11.084055 24.25977,-22.001167 38.90078,-14.063065 18.30502,3.8945 18.12844,25.602585 23.21027,39.943161 7.76526,30.18511 26.78252,56.04335 47.60664,78.63594 19.13278,10.14477 40.02645,17.43225 57.56301,30.06633 17.11948,7.2964 34.97347,22.64169 31.88515,43.09582 1.23965,5.35472 -5.24469,19.02117 -8.09047,17.31571 0.36714,-14.12025 1.93103,-30.4658 -10.56833,-40.22995 -8.91086,-5.98452 -20.24037,-10.38287 -31.2017,-8.64881 15.18511,12.59324 34.5199,26.57232 33.48017,48.58021 -0.63515,8.43012 -5.34843,17.26175 -11.04608,22.91979 -0.38228,-6.8733 2.15267,-16.83045 -0.35364,-24.91746 -0.39065,-13.18921 -13.12535,-19.69915 -23.22,-25.45136 9.86216,7.76173 17.22146,19.43071 15,32.40035 1.57742,11.76264 -8.08275,20.86398 -8.4616,32.61452 -1.19498,14.59938 11.04267,25.62695 24.4616,28.3844 0.98767,2.63259 -15.31765,-0.21412 -20.77893,-1.99805 -20.21134,-6.47396 -34.85726,-23.46731 -44.9107,-41.53236 -0.48519,11.22643 1.41804,21.83346 7.70292,31.30417 6.92613,11.11506 17.33665,19.71793 28.47501,26.54086 -11.62845,0.94841 -25.08708,-5.99839 -35.9883,-8.66915 43.04012,57.03891 88.23633,112.85905 131.01375,170.23388 8.49445,6.49285 4.48041,15.1601 1.37678,23.4539 -1.47083,10.74739 -10.88257,15.04785 -20.20268,17.72813 -14.475,6.27394 -27.96122,17.52044 -44.75874,14.90827 -13.4416,1.62943 -26.65132,5.59392 -39.4173,8.96253 -16.41469,-2.70984 -33.48185,-1.25467 -49.96745,-0.80451 -19.72154,6.86626 -39.8452,13.87084 -61.04436,10.90574 z M 232.66318,206.22933 c -2.79071,-16.97903 -9.24458,2.61344 0,0 z M 192.82858,64.62402 c 2.65091,-7.088571 -11.51692,-21.227092 0.56301,-22.160034 14.92175,-1.013329 5.1779,4.408041 7.1474,11.978364 0.0179,12.195763 8.56066,13.904085 13.23829,2.77883 8.05121,-12.408548 3.41858,-30.307605 -7.04638,-40.061656 -9.94206,-11.3111764 -29.92995,-8.9561346 -36.37445,5.016341 -4.37583,7.930081 -4.09954,19.208486 -0.69918,27.390402 4.39662,8.363364 12.53061,18.849564 22.84263,17.933671 l 0.17385,-1.521627 0.15473,-1.354353 z"
       id="path1617"
       inkscape:connector-curvature="0" />
    <path
       style="fill:#59a5a6;fill-opacity:1"
       d="m 321.5,592.30638 c -21.52417,-1.85019 -35.06714,-20.44675 -52.91163,-30.44164 -13.84911,-8.86797 -28.54598,-20.89606 -45.58882,-19.54925 15.96711,-33.01278 33.23583,-65.64689 46.3991,-99.80789 1.3145,-11.92824 8.53776,-24.9964 8.86995,-35.49638 -10.50517,21.18231 -18.94474,45.40074 -28.65599,67.75 -10.75023,24.13267 -18.7934,49.7075 -31.32515,72.89108 -6.92007,9.43316 4.92157,16.18244 10.78714,22.28021 8.89191,5.52947 6.64865,19.63872 -5.3976,16.06751 -17.12881,0.27146 -20.84363,-19.51124 -28.46713,-31.12385 -13.48671,-24.1363 -30.51723,-50.22985 -58.98498,-57.52533 -3.86304,-4.34943 -25.30416,1.68289 -16.33134,-4.33421 47.04285,-33.84858 99.37921,-62.69782 135.33115,-109.37784 11.90689,-13.2091 -2.30954,-2.69998 -8.09551,2.79803 -46.20987,37.68877 -92.41976,75.37754 -138.62964,113.06631 -2.86409,12.6683 11.79058,19.47904 18.95032,27.68835 10.78098,8.46953 25.1201,13.04059 32.79679,24.82125 4.55097,9.44237 -4.06982,16.25577 -11.89967,9.1651 -12.59874,-7.25938 -19.47361,-23.1259 -34.4527,-26.48977 -10.83183,4.98141 -7.41211,17.57928 -4.49563,26.57031 -7.87553,8.85185 -24.965394,1.25623 -24.43854,-10.66618 C 83.724891,532.0549 60.551738,524.15674 62.069554,504.88498 63.526774,493.09092 54.499942,483.5919 54,472.34863 c 7.982057,-9.49294 22.191788,-5.37129 31.595621,-12.9673 38.943809,-17.90997 76.062189,-39.5267 111.472199,-63.64684 -7.41856,0.71146 -15.80018,8.40274 -23.58469,11.76647 -33.58433,18.83742 -67.16866,37.67483 -100.752989,56.51225 -8.900176,-13.43054 -18.397055,-31.77875 -7.9872,-47.04899 5.869435,-5.83297 18.464073,-1.0086 27.051607,-2.53423 38.984722,1.60249 77.539792,-11.38151 110.973882,-30.68504 13.62005,-8.20163 25.91125,-19.31243 34.87418,-32.30457 6.38992,-7.54948 5.3054,-16.24841 2.82264,-25.16238 1.79376,-12.44939 -11.47462,-10.92822 -19.82193,-13.18666 -10.26922,-0.97755 -25.29823,-9.78643 -31.10982,3.18983 -5.24686,8.57217 -3.43256,18.73481 0.20262,27.61939 -14.86189,-7.51516 -16.62392,-29.60107 -4.05976,-40.07548 14.35648,-7.65863 0.2944,-6.19873 -9.06808,-8.68133 -10.43477,-1.4521 -21.09928,1.38869 -27.62196,10.20183 -3.52183,-3.12782 3.07612,-14.72653 8.5137,-18.52084 11.92018,-7.51717 27.35259,-5.58564 40,-0.65297 -7.17469,-8.60355 -16.79695,-15.61929 -28.63665,-13.56051 -10.28664,-0.71996 -22.08854,1.90131 -26.03889,12.54167 -4.3426,14.20097 -10.38583,-1.66797 -9.80533,-9.15293 -0.25065,-16.31992 17.69472,-27.76354 33.08371,-25 20.04573,2.6735 35.93486,19.15586 56.89714,18.27619 -3.69597,-6.67729 -15.52345,-8.2586 -22.37255,-12.95985 -13.12528,-9.31242 -22.27596,-23.88091 -36.47645,-32.28086 -14.80494,-11.16098 -35.9876,-8.55054 -49.87645,2.94418 -8.43672,4.25743 -14.24967,11.60969 -20.53017,18.41044 -0.04943,-13.0705 0.448024,-28.0803 12.62619,-36.01072 14.17757,-11.09112 34.43186,-12.12429 51.43236,-8.33359 21.11294,7.99873 41.92194,17.3402 64.37027,20.93885 1.59065,-10.62217 -8.5075,-12.86501 -16.37465,-15.52721 -10.37009,-4.42784 -16.29995,-14.91976 -16.88233,-25.95743 5.17914,12.33142 17.07609,21.04479 29.73868,23.17843 -1.3884,-7.35935 -0.0339,-18.36884 -9.1549,-21.20704 -4.08273,-8.9055 1.97054,-16.23769 1.44299,-24.48395 -2.8559,-16.16248 -5.71181,-32.32496 -8.56771,-48.48744 -16.13007,-0.13788 -32.37148,-5.87498 -42.15428,-19.256886 -3.77325,-4.220793 -11.94685,-21.028915 -9.57526,-19.500705 9.51509,14.554003 21.43906,30.514461 40.1113,32.434591 7.07827,-1.37872 14.20685,-13.326701 1.99417,-10.627781 -20.72655,-4.443339 -40.26822,-22.625376 -38.64882,-45.098277 -1.18782,-19.172153 11.5206,-40.293288 32.065,-41.843809 20.58508,-2.510791 42.43308,11.718174 46.41282,32.648796 5.36689,19.930776 -1.68635,45.896752 -22.90682,53.097442 -3.63083,4.617252 11.62524,9.545159 15.35073,3.49373 13.02346,-10.307855 17.2943,-26.873858 20.85277,-42.347101 1.66461,18.278634 -5.28492,37.457508 -20.71748,48.13669 -5.87764,4.4544 -17.38931,5.34304 -12.33967,15.37832 3.29771,15.63688 4.44942,32.36513 9.08256,47.32285 9.21621,5.51773 2.77344,18.78251 12.27352,24.32277 6.43662,4.97344 15.77915,14.73519 23.31091,12.77005 7.38262,-4.58022 17.09402,-13.72535 12.40175,-22.85217 0.34366,-9.79433 11.24075,-11.13714 14.18344,-19.01637 6.44385,-17.88214 14.72375,-37.12936 10.93314,-56.38711 -10.69976,-5.501258 -6.84516,-19.637858 1.60797,-25.225245 7.71444,-8.086327 19.82886,-15.523267 30.98249,-9.636276 12.80826,1.315294 19.13538,13.198034 20.76421,24.760559 6.3328,22.614612 12.92791,45.629732 28.09358,64.135122 10.31464,15.20449 21.12392,31.60458 39.35213,37.88461 15.14905,7.59517 31.01271,13.76014 44.75931,23.72814 17.21872,6.99389 32.52693,23.51787 29.38689,43.26052 0.25634,5.67641 -9.71269,22.56619 -6.45462,8.37157 2.67218,-16.47902 -5.64131,-34.95578 -22.53886,-39.81472 -4.67975,-2.31813 -22.91577,-6.75129 -18.86505,-0.078 14.18882,12.07936 33.76063,25.82857 30.40615,46.99371 1.3658,6.74623 -6.13485,19.65286 -9,19.89368 -0.43605,-13.65682 3.29079,-30.29587 -9.43037,-39.54279 -2.44826,-2.69776 -21.96768,-13.8154 -14.53061,-6.68623 15.68785,10.03651 18.74713,32.43103 10.19078,48.15189 -6.04991,12.52409 -6.25248,30.4006 6.99416,38.3771 11.22478,6.26148 10.69197,5.18611 -1.98921,4.12204 -23.06575,-5.71243 -39.3932,-24.42911 -50.61706,-44.37067 -3.54028,25.28638 14.55197,47.34622 35.21397,59.5 -12.49872,-0.49924 -24.94438,-7.16888 -36.30923,-9.35567 44.8893,58.77354 91.38979,116.3461 135.41024,175.76169 6.11092,7.24503 -2.52605,17.16844 -4.05492,25.20055 -5.15398,13.18966 -8.80249,-0.25882 -15.47559,-2.77242 -13.1106,8.53048 -19.99395,29.19605 -38.512,27.59739 -11.91035,0.21392 -24.33729,-1.86132 -34.61214,5.60001 -10.26158,7.40131 -23.24203,3.31757 -33.27793,-2.40778 -16.11649,-2.6185 -30.71818,7.54798 -46.11471,11.00601 -14.24647,5.52751 -29.71369,7.47795 -44.88464,5.6766 z m 79.51761,-39.80492 c -5.20379,-57.70455 -26.62202,-112.41531 -53.95746,-163.03351 -4.2371,-8.95467 -9.41814,-17.39417 -14.40245,-25.94104 0.33623,8.77382 8.67952,16.79188 12.1357,25.27122 28.39434,53.11865 51.18981,110.56648 54.97755,171.2489 0.99634,15.9371 3.62131,-0.002 1.28664,-7.17487 z M 505.47054,521.78125 C 462.22689,452.63931 414.9669,385.8065 361.68552,324 c 1.39853,4.71779 8.84698,12.50696 12.27522,18.56066 46.15999,65.00942 93.05788,129.5 139.50298,194.30896 0.41439,-4.38144 -6.02114,-10.38522 -7.99318,-15.08837 z M 234.95736,206.25 c -5.71906,-13.75596 -12.41718,-4.78541 -3.90236,0.75 0.85743,-0.42761 4.51993,0.95658 3.90236,-0.75 z M 193.37492,65.886486 c 3.77166,-6.693219 -9.06938,-18.523774 -1.8977,-22.314405 12.73737,-1.390279 9.36788,0.921102 7.42496,7.859299 1.07693,8.12194 5.62434,21.748152 13.28807,9.408104 14.3369,-16.31636 3.15539,-45.413897 -16.84392,-51.1295667 -14.20231,-4.2410861 -27.46177,8.7710527 -29.18967,22.2630067 -2.16709,15.751721 9.30592,32.997454 24.32322,36.812855 2.31166,0.54687 2.30692,-1.370458 2.89504,-2.899293 z"
       id="path1607"
       inkscape:connector-curvature="0" />
    <path
       style="fill:#459a9b;fill-opacity:1"
       d="m 426.5,353.51266 c -35.73912,-6.17881 -55.60701,-46.85242 -70.18449,-72.96388 -4.57837,-7.94082 -7.1959,-17.6561 -13.01044,-24.47827 -1.08299,9.78047 0.18422,19.95259 -2.72039,29.42949 -1.52959,-20.78878 -5.23423,-41.18977 -10.69608,-61.29254 -3.57009,-17.36375 -7.83166,-34.65911 -6.32218,-52.52528 -1.81534,-16.64042 3.56342,-32.40944 7.43358,-48.3612 0.76307,-10.41072 -8.67388,6.64415 -14.359,7.31972 -1.84701,8.19073 -5.42967,16.97695 -14.47599,19.60754 -6.51363,3.15622 -12.42131,7.92099 -18.93253,10.75176 7.05044,-17.51174 13.57651,-35.76514 12.81306,-54.89935 -0.29368,-7.260701 -12.37912,-11.503528 -6.20643,-19.77648 4.85837,-10.60065 16.0218,-18.661261 27.24581,-20.759442 11.80929,0.543253 26.0061,5.243409 29.03656,18.208166 6.46659,25.707176 13.53516,52.054326 30.53289,73.070836 9.72202,13.93305 19.08425,29.52444 35.7438,35.84254 15.89294,8.04363 32.93754,13.73956 46.95834,25.09179 15.79615,5.93467 31.6359,20.53539 30.6193,39.01162 0.95613,6.98986 -3.12618,13.35914 -6.57751,19.11714 -0.11932,-13.04744 2.58442,-29.04536 -9.31587,-37.98432 -7.1348,-8.85196 -19.70201,-11.09587 -30.36798,-11.81668 -9.39722,2.47243 7.84553,9.87959 10.51216,14.10694 10.40348,8.93832 20.70083,21.31186 18.25982,35.92288 0.79783,7.45382 -3.33033,15.05843 -8.48642,20.10925 -0.18518,-13.53357 2.62187,-29.47369 -9.23937,-39.1742 -5.78772,-3.79262 -12.08069,-9.27482 -19.04988,-10.07069 8.89995,7.24633 17.89715,15.71539 18.28992,28.00475 3.65149,15.3077 -11.06501,27.64748 -8.12567,43.10239 -0.0212,11.20515 8.87167,19.94206 19.0569,23.31222 0.52612,1.52392 -13.08059,-0.97344 -17.48384,-3.33082 -15.5163,-5.36186 -27.48089,-18.11448 -36.59761,-31.29233 -4.32849,-10.37119 -8.99993,-11.50868 -6.6258,0.79472 -0.74113,10.20414 5.62476,19.30747 10.78683,27.5206 6.74413,7.86545 14.56015,14.95635 22.98852,20.55469 -3.15389,0.96195 -7.90611,-1.58966 -11.50001,-2.15356 z m 12.14838,-67.29855 C 433.91371,276.9415 424.37169,273.79369 414.82272,271.94386 401.62875,267.90004 395.2621,254.95633 392.02499,242.5 c -4.07405,-16.9166 -17.47057,-30.10028 -18.80649,-47.79814 -2.23905,-10.51666 -8.99542,-19.48518 -10.77331,-30.3045 -2.9818,-8.37589 -4.64562,-23.73663 -16.57667,-22.39736 -9.52003,4.28391 -7.29655,17.08782 -9.08735,25.69793 1.04602,9.58715 -0.34052,19.58207 2.89568,28.80207 3.53853,-4.45258 9.5841,-19.81114 11.81101,-6.82849 7.85729,25.34903 21.15673,48.40564 36.66327,69.80299 6.87188,10.90644 14.66657,22.68551 28.25217,25.32307 7.60952,3.58988 16.97105,3.29921 24.49525,5.60398 0.94587,-1.00394 -1.91714,-2.97137 -2.25017,-4.18744 z M 183.69199,338.1018 c -11.45219,-9.61075 -6.21821,-29.32048 5.00654,-36.90196 12.50958,-3.71592 -2.75553,-3.8994 -8.17315,-5.33532 -11.71617,-2.7885 -25.01347,-0.2416 -32.52535,9.87163 -0.48661,-9.30084 6.42145,-17.61931 14.31783,-21.35409 11.56599,-4.35773 24.73528,-2.67151 35.79967,2.47044 -6.3548,-8.98664 -16.48959,-15.68708 -27.99265,-14.67253 -9.9951,-0.22349 -22.77,1.15855 -27.01389,11.84068 -3.79211,11.36562 -7.68144,6.00032 -9.56801,-2.83227 -4.07975,-16.16301 12.38561,-31.41408 28.10237,-30.1446 20.61289,-0.61736 36.18349,17.47067 56.67991,17.90083 12.78335,0.1688 -3.45919,-6.31023 -8.1939,-7.99715 -18.09231,-6.42398 -26.74406,-25.07999 -42.75816,-34.57434 -7.60118,-6.2822 -16.64629,-10.63355 -26.69102,-8.87312 -14.63965,-1.22896 -27.43628,8.99015 -37.9074,18.12957 -6.027316,7.47298 -10.909293,12.0807 -8.77478,-0.86443 -0.576462,-16.4993 13.25625,-29.36062 28.46469,-33.16628 16.36222,-4.51341 34.17283,-2.98658 49.25459,5.04164 16.15001,6.15491 33.04998,12.87213 49.87828,15.09528 2.5358,-9.01801 -5.15148,-11.86616 -12.45624,-14.20489 -11.76288,-3.82424 -19.92779,-14.65752 -20.26699,-27.03089 5.10641,11.74303 15.70259,20.18618 28.01753,23.38214 4.95474,-1.68773 -2.1817,-12.95059 -0.39186,-17.60382 9.86079,-4.90442 10.08971,4.73414 10.55383,12.25879 -2.37672,12.64563 9.03729,5.18325 13.72869,13.77634 5.9137,4.8821 10.72342,12.46836 17.31804,15.68255 8.96146,-2.44228 14.58721,-11.32759 21.66152,-17.01433 1.43323,10.19964 -2.33079,20.80307 -2.07592,31.27314 -3.9186,30.99595 -19.68265,58.8679 -30.34273,87.90008 -2.79568,11.64469 -5.97331,7.77773 -6.465,-2.30273 1.1082,-10.34751 -6.61444,-13.52117 -15.59409,-13.96523 -10.17899,-1.39644 -21.13602,-6.4989 -31.05174,-3.50359 -9.36066,7.54344 -9.94658,21.65924 -5.30594,32.02273 -1.49988,1.52404 -3.67995,-3.60066 -5.23467,-4.30427 z M 258.75,204.42803 c -7.83801,-4.1185 8.78137,-7.70219 9.55451,-14.01207 4.3192,-13.97424 6.09885,3.44276 -0.33091,7.53607 -3.03066,1.98413 -4.86587,11.3409 -9.2236,6.476 z m -46.85959,-42.63272 c -3.24287,-17.40233 -6.25123,-34.86858 -9.40456,-52.29531 -18.3656,-0.004 -37.18209,-8.62273 -46.07108,-25.27136 -2.96954,-4.356461 -9.72189,-19.714749 -2.44896,-8.531099 8.70112,12.813174 21.02272,27.592899 37.76441,26.991679 6.50329,-0.93228 12.44587,-12.307663 1.54675,-10.508559 C 171.64054,88.843986 152.57626,68.79889 154,46.286943 c 0.12758,-16.594483 9.15771,-34.877972 26.26049,-39.2979255 15.03792,-4.5858102 32.2556,1.3110793 42.71329,12.6757665 13.31608,15.827299 14.87232,40.158996 4.15817,57.757606 -4.12811,7.34546 -12.14753,11.337629 -19.54863,14.822448 5.2177,7.465117 13.47948,6.08194 19.88925,1.153923 C 238.74345,82.908652 242.15208,67.852006 245.85345,53.5 c 1.48255,17.5205 -5.51173,35.471954 -19.61695,46.240206 -4.89519,5.102644 -18.51142,4.596544 -13.71595,14.256894 2.28546,15.40112 5.90254,31.27634 7.37744,46.38889 -2.28625,0.86563 -5.85863,1.54847 -8.00758,1.40932 z M 192.99246,67.509084 C 196.49374,60.070893 189.13373,51.832021 189,44.122546 c 4.69266,-3.155045 20.64837,1.48412 9.10307,3.067976 1.09127,6.207591 2.75871,13.827613 5.97357,19.821204 11.56189,-4.472739 16.06229,-17.782921 14.26007,-29.282953 -1.94282,-11.703231 -8.99474,-23.704933 -20.95939,-27.381165 -12.96747,-5.5875645 -28.54025,5.159949 -30.39412,18.782139 -4.48315,16.184931 6.41732,33.6897 21.5168,39.824713 1.7848,-0.162056 3.66085,0.84625 4.49246,-1.445376 z"
       id="path1605"
       inkscape:connector-curvature="0"
       sodipodi:nodetypes="cccccccccccccccccccccccccccccccccccccccccccccccccccccccccccccccccccccccccccccccccccccccccccccccccccccccccccccccc" />
  </g>
</svg>
